<mxfile host="app.diagrams.net" modified="2024-03-04T17:47:53.163Z" agent="Mozilla/5.0 (Windows NT 10.0; WOW64) AppleWebKit/537.36 (KHTML, like Gecko) Chrome/86.0.4240.198 Safari/537.36" version="23.1.7" etag="2u4LETYbCxg4qy8t58AM" type="github">
  <diagram name="第 1 页" id="6OFmX7j4nnsFsYeu7v2u">
    <mxGraphModel>
      <root>
        <mxCell id="0" />
        <mxCell id="1" parent="0" />
      </root>
    </mxGraphModel>
  </diagram>
</mxfile>
